HIERARCHY
ROOT pelvis
{
  OFFSET 0 100 0
  CHANNELS 6 Xposition Yposition Zposition Zrotation Xrotation Yrotation
  JOINT pelvis_right_femur
  {
    OFFSET -10.78128 -3.44521 -0.5502486
    CHANNELS 3 Zrotation Xrotation Yrotation
    JOINT right_femur_tibia
    {
      OFFSET -0.8047443 -44.0398 -0.1307829
      CHANNELS 3 Zrotation Xrotation Yrotation
      JOINT right_tibia_foot
      {
        OFFSET 3.006224 -47.83518 -5
        CHANNELS 3 Zrotation Xrotation Yrotation
        End Site
        {
          OFFSET 0 -5 15
        }
      }
    }
  }
  JOINT pelvis_left_femur
  {
    OFFSET 10.78128 -3.44521 -0.5502486
    CHANNELS 3 Zrotation Xrotation Yrotation
    JOINT left_femur_tibia
    {
      OFFSET 0.8047443 -44.0398 -0.1307829
      CHANNELS 3 Zrotation Xrotation Yrotation
      JOINT left_tibia_foot
      {
        OFFSET -4.370144 -48.10324 -4.275266
        CHANNELS 3 Zrotation Xrotation Yrotation
        End Site
        {
          OFFSET 0 -5 15
        }
      }
    }
  }
  JOINT pelvis_spine1
  {
    OFFSET 0 6.468898 -3.129235
    CHANNELS 3 Zrotation Xrotation Yrotation
    JOINT spine1
    {
      OFFSET 0 23.15396 4.99043
      CHANNELS 3 Zrotation Xrotation Yrotation
      JOINT spine2
      {
        OFFSET 0 20.79997 -5.064912
        CHANNELS 3 Zrotation Xrotation Yrotation
        JOINT neck
        {
          OFFSET 0 14.38658 9.616178
          CHANNELS 3 Zrotation Xrotation Yrotation
          End Site
          {
            OFFSET 0 20 0
          }
        }
      }
      JOINT right_manubrium
      {
        OFFSET -5.722621 16.35077 3.967754
        CHANNELS 3 Zrotation Xrotation Yrotation
        JOINT right_clavicle
        {
          OFFSET -13.16364 1.694482 -4.693211
          CHANNELS 3 Zrotation Xrotation Yrotation
          JOINT right_humerus
          {
            OFFSET -28.5034 -0.3100689 -2.792744
            CHANNELS 3 Zrotation Xrotation Yrotation
            JOINT right_radius
            {
              OFFSET -25.15693 0.02248979 -1.271978
              CHANNELS 3 Zrotation Xrotation Yrotation
              End Site
              {
                OFFSET -15 0 0
              }
            }
          }
        }
      }
      JOINT left_manubrium
      {
        OFFSET 5.722621 16.35077 3.967754
        CHANNELS 3 Zrotation Xrotation Yrotation
        JOINT left_clavicle
        {
          OFFSET 13.16364 1.694482 -4.693211
          CHANNELS 3 Zrotation Xrotation Yrotation
          JOINT left_humerus
          {
            OFFSET 29.39168 -1.063119 -2.237045
            CHANNELS 3 Zrotation Xrotation Yrotation
            JOINT left_radius
            {
              OFFSET 24.59957 -0.9528479 0.9047498
              CHANNELS 3 Zrotation Xrotation Yrotation
              End Site
              {
                OFFSET 15 -0 -0
              }
            }
          }
        }
      }
    }
  }
}
MOTION
Frames: 23
Frame Time: 0.0416666666667
-668.0303 103.4088 2516.173 -6.512552 -9.190565 -36.97108 0.6465685 -0.7394258 -2.464603 -0 49.49658 -0 -12.74035 13.41675 0.9823914 -5.118629 3.412873 -11.13868 -0 15.00354 -0 -1.620707 -14.00467 17.90828 -2.093582 -0.6879978 5.634269 1.182403 10.92538 -7.051594 0.3948234 20.79565 7.143321 3.666656 -22.81334 7.154725 2.959583 -19.51838 12.51502 87.18535 32.06182 -15.7629 -0 0 14.81572 -21.39828 11.05019 12.06773 5.595984 -21.42416 -1.768883 -90.0977 19.79148 20.98758 0 0 -15.23632 5.731032 9.161892 4.772934
-670.3486 104.1672 2519.96 -5.974808 -7.925626 -36.18776 1.276585 -8.275887 -1.609798 -0 46.8045 -0 -11.96573 8.343937 -0.3888987 -4.733458 7.546974 -12.26083 -0 12.39773 -0 -0.9801326 -15.58205 17.1688 -2.077844 -1.156927 4.7398 2.263788 10.14633 -8.032464 0.3578939 20.47897 7.793942 4.044888 -24.54675 7.972191 4.167422 -18.51032 12.45489 86.70521 33.05716 -17.52046 -0 0 13.77293 -17.70992 11.03749 9.53405 6.93133 -22.24883 -0.3115267 -90.73355 19.94233 19.25991 0 0 -14.8884 8.319434 11.8483 1.221932
-672.4306 104.5145 2523.364 -4.993388 -6.51673 -35.52826 1.677199 -13.43983 -0.7628688 -0 42.0337 -0 -10.93935 3.532157 -1.440912 -4.685406 10.09409 -13.45519 -0 10.16721 -0 -0.4630291 -17.1656 17.1076 -2.219158 -2.173982 4.536615 2.948813 9.438328 -8.50154 0.7101079 20.31275 7.839849 3.943892 -26.03175 9.01598 5.441803 -18.54824 11.98729 85.30985 33.6744 -18.23081 -0 0 14.97161 -12.44161 10.4505 6.309296 7.969348 -22.13863 1.160231 -92.6208 21.00063 19.79002 0 0 -13.34203 10.95129 15.11412 -1.113085
-674.263 104.5707 2526.395 -3.968659 -5.175576 -35.04201 2.098129 -16.70878 0.4150302 -0 38.4376 -0 -10.03321 -0.7596128 -2.155183 -4.813648 11.67343 -15.00016 -0 8.508012 -0 0.1434423 -18.37475 17.6415 -2.266371 -2.881355 4.81224 2.982435 9.43248 -8.395009 1.216677 20.39255 7.316648 3.561493 -26.41695 9.58286 6.087467 -18.99291 11.50993 84.97571 34.13946 -18.83631 -0 0 16.00602 -8.754701 9.757916 4.288962 7.93905 -21.66512 1.116576 -93.83322 22.35001 20.97999 0 0 -13.39031 12.01354 16.5947 -0.8339671
-675.9213 104.3971 2529.181 -2.985325 -3.9744 -34.69995 2.442035 -19.07922 1.442787 -0 35.10314 -0 -9.160571 -3.766218 -2.582376 -5.048706 12.50942 -16.16886 -0 7.333338 -0 0.9436694 -19.32649 18.37586 -2.037786 -2.625226 4.801424 3.00491 9.644307 -8.255306 1.278596 20.41969 7.145252 3.517243 -26.31182 9.496886 6.15404 -18.70765 11.48686 85.67369 34.86966 -19.59989 -0 0 14.98019 -8.116023 9.817715 4.278837 7.439683 -21.53519 0.292257 -93.39774 22.81362 20.76807 0 0 -15.17611 11.8359 15.67368 0.04557802
-677.5395 103.9844 2531.927 -2.146099 -2.983717 -34.45456 2.642861 -21.41211 1.844305 -0 31.16026 -0 -8.423683 -5.036028 -2.692597 -5.310146 13.03459 -16.51064 -0 6.574208 -0 1.91559 -20.14308 18.85247 -1.840958 -2.314165 4.711022 3.057593 9.78652 -8.205553 1.227568 20.41395 7.112216 3.544022 -26.1855 9.329328 6.1101 -18.36758 11.54289 86.26261 35.31471 -20.16599 -0 0 13.94439 -8.213182 10.01608 4.596019 7.085859 -21.52123 -0.3082947 -92.81314 22.92849 20.31522 0 0 -16.54298 11.53531 14.71992 0.648679
-679.1774 103.3658 2534.721 -1.438183 -2.138933 -34.26341 2.820583 -23.62496 1.979041 -0 27.2823 -0 -7.819976 -5.442451 -2.639215 -5.556505 13.47042 -16.50201 -0 6.15027 -0 2.931179 -20.78906 19.16972 -1.739734 -2.224551 4.703122 3.065444 9.877107 -8.147584 1.261493 20.45061 7.002327 3.479562 -26.13825 9.292202 6.098196 -18.28321 11.51699 86.59061 35.55059 -20.507 -0 0 13.527 -7.937675 9.991746 4.575659 6.850298 -21.42389 -0.6704365 -92.64764 23.14366 20.30293 0 0 -17.18686 11.44878 14.37725 1.029935
-680.8469 102.5969 2537.583 -0.8000808 -1.342266 -34.09876 3.069508 -25.64524 2.137338 -0 23.82588 -0 -7.304991 -5.557356 -2.505027 -5.791806 13.84446 -16.46934 -0 5.980511 -0 4.008791 -21.24785 19.49679 -1.663928 -2.135543 4.674164 3.087161 9.940459 -8.114026 1.274479 20.47317 6.936704 3.436013 -26.11135 9.261308 6.072238 -18.19862 11.5102 86.8667 35.72652 -20.78268 -0 0 13.14949 -7.781969 9.983688 4.604768 6.665149 -21.35202 -0.95593 -92.45684 23.2598 20.22015 0 0 -17.73267 11.3906 14.05422 1.283823
-682.5808 101.7186 2540.558 -0.2217035 -0.5586601 -33.9342 3.408477 -27.64735 2.263946 -0 20.55319 -0 -6.876446 -5.277994 -2.283692 -6.005218 14.19897 -16.31473 -0 6.124519 -0 5.164614 -21.51616 19.75335 -1.599007 -2.027884 4.621151 3.12316 9.986478 -8.10615 1.258641 20.47612 6.917992 3.422923 -26.08356 9.214819 6.035049 -18.08356 11.52706 87.11187 35.86126 -21.02106 -0 0 12.74831 -7.789106 10.02623 4.717466 6.520939 -21.32125 -1.190311 -92.20248 23.27792 20.0271 0 0 -18.25311 11.31893 13.69389 1.464546
-684.4356 100.7767 2543.726 0.2835466 0.2518235 -33.73807 3.891189 -29.74548 2.341816 -0 17.38858 -0 -6.555186 -4.495082 -1.978201 -6.164598 14.5771 -15.95112 -0 6.753709 -0 6.329543 -21.54572 19.81023 -1.546343 -1.936616 4.57203 3.155553 10.02242 -8.105496 1.240487 20.4758 6.908351 3.414756 -26.05686 9.171405 6.000287 -17.98217 11.54383 87.31211 35.95954 -21.21641 -0 0 12.40743 -7.828728 10.07076 4.828265 6.407622 -21.30283 -1.377791 -91.97652 23.27567 19.84654 0 0 -18.67956 11.25131 13.3887 1.608904
-686.4822 99.84748 2547.181 0.6857932 1.15162 -33.47363 4.629652 -31.89231 2.463862 -0 14.56954 -0 -6.395154 -3.234487 -1.60199 -6.21721 14.97955 -15.38776 -0 8.146324 -0 7.336677 -21.21561 19.53125 -1.497085 -1.838091 4.515524 3.189667 10.05171 -8.119533 1.205926 20.46396 6.922056 3.426629 -26.01537 9.109639 5.964441 -17.86079 11.57174 87.48376 36.02349 -21.38619 -0 0 12.06349 -7.980054 10.15581 4.988074 6.324073 -21.31679 -1.530632 -91.72801 23.22753 19.61383 0 0 -19.06885 11.14905 13.07679 1.741053
-688.8092 99.05353 2551.038 0.9146478 2.20563 -33.10151 5.760661 -33.83616 2.753898 -0 12.55336 -0 -6.5002 -1.608478 -1.183648 -6.065943 15.35712 -14.64385 -0 10.78663 -0 7.777256 -20.31792 18.64744 -1.445472 -1.712036 4.4427 3.227144 10.07735 -8.158433 1.139267 20.43073 6.975748 3.477219 -25.93454 9.003168 5.925138 -17.68615 11.62253 87.62891 36.03666 -21.53531 -0 0 11.66993 -8.351979 10.32819 5.255419 6.279434 -21.39105 -1.648747 -91.41131 23.10104 19.26165 0 0 -19.44987 10.95921 12.70804 1.889526
-691.5039 98.56822 2555.408 0.8648393 3.437139 -32.60192 7.339666 -34.90954 3.335059 -0 11.98788 -0 -6.991461 -0.03205181 -0.8042899 -5.575087 15.52392 -13.7918 -0 15.37223 -0 6.89285 -18.55292 16.78833 -1.392157 -1.554786 4.361916 3.25498 10.10582 -8.222269 1.035311 20.3753 7.071069 3.576802 -25.78194 8.829886 5.883484 -17.45019 11.69974 87.72817 35.96586 -21.64179 -0 0 11.24283 -9.034162 10.61538 5.663499 6.284293 -21.54229 -1.723042 -91.03124 22.8908 18.78429 0 0 -19.78051 10.62222 12.28108 2.100479
-694.5832 98.55668 2560.311 0.4633054 4.64341 -32.03832 9.029071 -34.01773 4.132712 -0 13.1649 -0 -7.833523 0.660095 -0.6399126 -4.693592 15.04506 -12.94417 -0 22.46121 -0 3.982904 -15.67007 13.88772 -1.34643 -1.372047 4.300907 3.243316 10.14932 -8.293747 0.8984669 20.30978 7.194911 3.725765 -25.51687 8.572659 5.836546 -17.17445 11.80204 87.74572 35.77085 -21.64498 -0 0 10.85693 -10.10824 11.01842 6.234985 6.338909 -21.76543 -1.746183 -90.63256 22.61401 18.24013 0 0 -19.95928 10.07572 11.81667 2.435063
-697.9419 99.03243 2565.61 -0.2179789 5.092568 -31.62279 9.960646 -30.60123 4.685676 -0 14.90398 -0 -8.495717 0.0270386 -0.9504276 -3.709341 13.54521 -11.99901 -0 31.62264 -0 -0.3117184 -12.03244 10.90408 -1.328392 -1.196725 4.315471 3.149868 10.21876 -8.321067 0.7586802 20.27216 7.301727 3.889761 -25.13422 8.255517 5.776052 -16.95053 11.91084 87.63371 35.4577 -21.43885 -0 0 10.67846 -11.48772 11.44795 6.912952 6.410132 -21.99023 -1.720863 -90.34472 22.35085 17.84227 0 0 -19.8197 9.340381 11.39693 2.919275
-701.4652 99.83867 2571.105 -0.9902309 3.951887 -31.59173 9.679902 -25.75578 4.729368 -0 15.36178 -0 -8.114752 -0.8959782 -1.87749 -3.116519 11.48041 -10.65929 -0 40.97111 -0 -3.896962 -8.964322 9.420802 -1.349599 -1.081706 4.439676 2.972564 10.29878 -8.257463 0.6573247 20.29735 7.343724 4.009508 -24.72583 7.961345 5.702181 -16.88994 11.99308 87.37566 35.13972 -20.97421 -0 0 10.83396 -12.80938 11.74867 7.530813 6.450843 -22.1137 -1.652628 -90.3078 22.20742 17.84284 0 0 -19.2909 8.605532 11.14845 3.446391
-705.1162 100.8584 2576.656 -1.718987 1.655728 -31.94587 8.795427 -20.96116 4.612711 -0 14.67848 -0 -6.728528 -1.246521 -3.128292 -2.951376 9.437365 -9.129346 -0 48.34428 -0 -5.835045 -7.275881 9.737901 -1.394922 -1.03882 4.619036 2.775947 10.35879 -8.136551 0.6002147 20.36302 7.334829 4.068353 -24.40113 7.752319 5.628511 -16.97426 12.03704 87.04777 34.92456 -20.38923 -0 0 11.20049 -13.78512 11.88059 7.979697 6.459939 -22.13136 -1.556176 -90.46166 22.17585 18.16262 0 0 -18.59441 8.060732 11.08071 3.85564
-708.8455 102.0675 2582.152 -2.340887 -0.6110463 -32.54262 7.959401 -16.67722 4.577851 -0 13.93376 -0 -5.33098 -1.516548 -4.1519 -2.909321 7.158747 -7.910421 -0 53.28061 -0 -6.69443 -6.450668 10.87575 -1.446821 -1.021783 4.784439 2.604445 10.40072 -8.015133 0.5620133 20.4276 7.318508 4.097002 -24.15381 7.606499 5.551522 -17.09955 12.06473 86.7529 34.78165 -19.84156 -0 0 11.571 -14.52466 11.93347 8.334695 6.453446 -22.10893 -1.471751 -90.61533 22.15488 18.51129 0 0 -17.99715 7.679185 11.04286 4.140012
-712.5887 103.4085 2587.507 -2.856705 -2.433039 -33.29148 7.295524 -12.7305 4.572259 -0 13.37045 -0 -4.423334 -2.062344 -4.744412 -2.832762 4.375389 -7.084708 -0 56.54126 -0 -6.989763 -5.941832 12.18407 -1.502435 -0.9966269 4.930425 2.447685 10.44193 -7.899162 0.5262728 20.48343 7.307317 4.116241 -23.92591 7.480337 5.45712 -17.22602 12.09443 86.5083 34.64968 -19.33495 -0 0 11.89778 -15.22768 11.96849 8.697197 6.428618 -22.07183 -1.421671 -90.6976 22.09738 18.79379 0 0 -17.53199 7.351522 10.93609 4.383576
-716.2999 104.7738 2592.676 -3.297895 -3.927551 -34.14227 6.719152 -8.84557 4.537537 -0 12.83554 -0 -3.907162 -2.883914 -5.009947 -2.678724 1.072454 -6.493981 -0 58.43087 -0 -6.966087 -5.634458 13.56404 -1.56476 -0.9681359 5.083245 2.283309 10.48642 -7.76999 0.492403 20.5423 7.290909 4.125109 -23.69115 7.357581 5.342595 -17.37537 12.12442 86.26884 34.51689 -18.79954 -0 0 12.24201 -15.94812 11.98521 9.087524 6.383008 -22.01118 -1.391524 -90.75761 22.02427 19.09066 0 0 -17.09647 7.031201 10.78553 4.631571
-719.9376 106.0462 2597.628 -3.661266 -5.14405 -35.04577 6.186544 -4.836146 4.454263 -0 12.2433 -0 -3.700638 -4.039107 -4.998865 -2.402639 -2.820896 -6.039775 -0 58.77696 -0 -6.722237 -5.493079 14.99751 -1.637557 -0.9438923 5.261776 2.097158 10.53339 -7.613154 0.4610135 20.61219 7.261739 4.119314 -23.4385 7.233043 5.20453 -17.57134 12.15113 85.99848 34.38496 -18.17882 -0 0 12.65415 -16.70251 11.97457 9.514475 6.314211 -21.91574 -1.368873 -90.83101 21.94925 19.46812 0 0 -16.62481 6.704392 10.61343 4.899833
-723.4508 107.0957 2602.349 -3.892239 -5.993595 -35.94109 5.703726 -0.6257629 4.285579 -0 11.51507 -0 -3.842284 -5.656965 -4.655745 -1.929969 -7.452211 -5.657328 -0 57.11647 -0 -6.244778 -5.449003 16.38889 -1.725476 -0.9236486 5.478093 1.878094 10.58404 -7.416668 0.4310304 20.69633 7.216003 4.09494 -23.15427 7.101245 5.031605 -17.83282 12.17451 85.67892 34.24741 -17.4284 -0 0 13.1666 -17.52693 11.93177 10.00532 6.213843 -21.77279 -1.355011 -90.92027 21.86592 19.95703 0 0 -16.09829 6.357259 10.40414 5.204532
-726.7823 107.7682 2606.848 -3.891829 -6.278412 -36.75278 5.316973 3.682082 3.964615 -0 10.52023 -0 -4.377151 -7.858544 -3.884328 -1.130485 -12.86586 -5.220989 -0 52.64193 -0 -5.457779 -5.402005 17.51893 -1.833579 -0.9097089 5.745832 1.614982 10.63739 -7.166329 0.4024468 20.79723 7.147917 4.044533 -22.82806 6.959729 4.81012 -18.18679 12.19256 85.2887 34.09946 -16.49594 -0 0 13.82238 -18.44531 11.84664 10.58578 6.071044 -21.56347 -1.350985 -91.03047 21.76711 20.60037 0 0 -15.50049 5.983958 10.14317 5.557937
